<!-- Generator: Adobe Illustrator 18.0.0, SVG Export Plug-In  -->
<svg version="1.1"
   xmlns="http://www.w3.org/2000/svg" xmlns:xlink="http://www.w3.org/1999/xlink" xmlns:a="http://ns.adobe.com/AdobeSVGViewerExtensions/3.0/"
   x="0px" y="0px" width="1431.5px" height="540.7px" viewBox="0 0 1431.5 540.7" enable-background="new 0 0 1431.5 540.7"
   xml:space="preserve">
<defs>
</defs>
<g>
  <path fill="#FFFFFF" d="M563.2,114.3c-3.8-0.9-26.2-13.4-46-25.2c-0.5-0.3-5.2-3.7-5.2-8.3v-45c0-6.7,7-10.2,7-10.3l0.1,0l0.1,0
    c18.9-10.9,40.3-22.4,44-23.2c3.6,0.8,25,12.3,44,23.2l0.1,0l0.1,0c0.1,0,7,3.6,7,10.3v45c0,4.5-4.6,7.9-5.2,8.3
    C589.4,100.8,567,113.3,563.2,114.3z"/>
</g>
<g>
  <path fill="#FFFFFF" d="M665.6,114.3c-3.8-0.9-26.2-13.4-46-25.2c-0.5-0.3-5.2-3.7-5.2-8.3v-45c0-6.7,7-10.2,7-10.3l0.1,0l0.1,0
    c18.9-10.9,40.3-22.4,44-23.2c3.6,0.8,25,12.3,44,23.2l0.1,0l0.1,0c0.1,0,7,3.6,7,10.3v45c0,4.5-4.6,7.9-5.2,8.3
    C691.7,100.8,669.4,113.3,665.6,114.3z"/>
</g>
<g>
  <path fill="#FFFFFF" d="M767.9,114.3c-3.8-0.9-26.2-13.4-46-25.2c-0.5-0.3-5.2-3.7-5.2-8.3v-45c0-6.7,7-10.2,7-10.3l0.1,0l0.1,0
    c18.9-10.9,40.3-22.4,44-23.2c3.6,0.8,25,12.3,44,23.2l0.1,0l0.1,0c0.1,0,7,3.6,7,10.3v45c0,4.5-4.6,7.9-5.2,8.3
    C794.1,100.8,771.7,113.3,767.9,114.3z"/>
</g>
<path fill="#FFFFFF" d="M870.2,114.3c-3.8-0.9-26.2-13.4-46-25.2c-0.5-0.3-5.2-3.7-5.2-8.3v-45c0-6.7,7-10.2,7-10.3l0.1,0l0.1,0
  c18.9-10.9,40.3-22.4,44-23.2c3.6,0.8,25,12.3,44,23.2l0.1,0l0.1,0c0.1,0,7,3.6,7,10.3v45c0,4.5-4.6,7.9-5.2,8.3
  C896.4,100.8,874.1,113.3,870.2,114.3z"/>
<g>
  <path fill="#F7F9F9" d="M921.4,87.1c3.8,0.9,26.2,13.4,46,25.2c0.5,0.3,5.2,3.7,5.2,8.3v45c0,6.7-7,10.2-7,10.3l-0.1,0l-0.1,0
    c-18.9,10.9-40.3,22.4-44,23.2c-3.6-0.8-25-12.3-44-23.2l-0.1,0l-0.1,0c-0.1,0-7-3.6-7-10.3v-45c0-4.5,4.6-7.9,5.2-8.3
    C895.2,100.5,917.6,88,921.4,87.1z"/>
</g>
<g>
  <path fill="#F7F9F9" d="M512,87.1c3.8,0.9,26.2,13.4,46,25.2c0.5,0.3,5.2,3.7,5.2,8.3v45c0,6.7-7,10.2-7,10.3l-0.1,0l-0.1,0
    c-18.9,10.9-40.3,22.4-44,23.2c-3.6-0.8-25-12.3-44-23.2l-0.1,0l-0.1,0c-0.1,0-7-3.6-7-10.3v-45c0-4.5,4.6-7.9,5.2-8.3
    C485.9,100.5,508.2,88,512,87.1z"/>
</g>
<g>
  <path fill="#FBFCFC" d="M819.1,87.1c3.8,0.9,26.2,13.4,46,25.2c0.5,0.3,5.2,3.7,5.2,8.3v45c0,6.7-7,10.2-7,10.3l-0.1,0l-0.1,0
    c-18.9,10.9-40.3,22.4-44,23.2c-3.6-0.8-25-12.3-44-23.2l-0.1,0l-0.1,0c-0.1,0-7-3.6-7-10.3v-45c0-4.5,4.6-7.9,5.2-8.3
    C792.9,100.5,815.2,88,819.1,87.1z"/>
</g>
<g>
  <path fill="#F7F9F9" d="M716.7,87.1c3.8,0.9,26.2,13.4,46,25.2c0.5,0.3,5.2,3.7,5.2,8.3v45c0,6.7-7,10.2-7,10.3l-0.1,0l-0.1,0
    c-18.9,10.9-40.3,22.4-44,23.2c-3.6-0.8-25-12.3-44-23.2l-0.1,0l-0.1,0c-0.1,0-7-3.6-7-10.3v-45c0-4.5,4.6-7.9,5.2-8.3
    C690.5,100.5,712.9,88,716.7,87.1z"/>
</g>
<path fill="#FBFCFC" d="M614.4,87.1c3.8,0.9,26.2,13.4,46,25.2c0.5,0.3,5.2,3.7,5.2,8.3v45c0,6.7-7,10.2-7,10.3l-0.1,0l-0.1,0
  c-18.9,10.9-40.3,22.4-44,23.2c-3.6-0.8-25-12.3-44-23.2l-0.1,0l-0.1,0c-0.1,0-7-3.6-7-10.3v-45c0-4.5,4.6-7.9,5.2-8.3
  C588.2,100.5,610.5,88,614.4,87.1z"/>
<g>
  <path fill="#FFFFFF" d="M563.2,285.1c-3.8-0.9-26.2-13.4-46-25.2c-0.5-0.3-5.2-3.7-5.2-8.3v-45c0-6.7,7-10.2,7-10.3l0.1,0l0.1,0
    c18.9-10.9,40.3-22.4,44-23.2c3.6,0.8,25,12.3,44,23.2l0.1,0l0.1,0c0.1,0,7,3.6,7,10.3v45c0,4.5-4.6,7.9-5.2,8.3
    C589.4,271.7,567,284.1,563.2,285.1z"/>
</g>
<g>
  <path fill="#FFFFFF" d="M665.6,285.6c-3.8-0.9-26.2-13.4-46-25.2c-0.5-0.3-5.2-3.7-5.2-8.3v-45c0-6.7,7-10.2,7-10.3l0.1,0l0.1,0
    c18.9-10.9,40.3-22.4,44-23.2c3.6,0.8,25,12.3,44,23.2l0.1,0l0.1,0c0.1,0,7,3.6,7,10.3v45c0,4.5-4.6,7.9-5.2,8.3
    C691.7,272.2,669.4,284.7,665.6,285.6z"/>
</g>
<g>
  <path fill="#FBFCFC" d="M767.9,285.1c-3.8-0.9-26.2-13.4-46-25.2c-0.5-0.3-5.2-3.7-5.2-8.3v-45c0-6.7,7-10.2,7-10.3l0.1,0l0.1,0
    c18.9-10.9,40.3-22.4,44-23.2c3.6,0.8,25,12.3,44,23.2l0.1,0l0.1,0c0.1,0,7,3.6,7,10.3v45c0,4.5-4.6,7.9-5.2,8.3
    C794.1,271.7,771.7,284.1,767.9,285.1z"/>
</g>
<path fill="#FFFFFF" d="M870.2,285.1c-3.8-0.9-26.2-13.4-46-25.2c-0.5-0.3-5.2-3.7-5.2-8.3v-45c0-6.7,7-10.2,7-10.3l0.1,0l0.1,0
  c18.9-10.9,40.3-22.4,44-23.2c3.6,0.8,25,12.3,44,23.2l0.1,0l0.1,0c0.1,0,7,3.6,7,10.3v45c0,4.5-4.6,7.9-5.2,8.3
  C896.4,271.7,874.1,284.1,870.2,285.1z"/>
<g>
  <path fill="#F7F9F9" d="M921.4,257.9c3.8,0.9,26.2,13.4,46,25.2c0.5,0.3,5.2,3.7,5.2,8.3v45c0,6.7-7,10.2-7,10.3l-0.1,0l-0.1,0
    c-18.9,10.9-40.3,22.4-44,23.2c-3.6-0.8-25-12.3-44-23.2l-0.1,0l-0.1,0c-0.1,0-7-3.6-7-10.3v-45c0-4.5,4.6-7.9,5.2-8.3
    C895.2,271.3,917.6,258.8,921.4,257.9z"/>
</g>
<g>
  <path fill="#F7F9F9" d="M512,257.9c3.8,0.9,26.2,13.4,46,25.2c0.5,0.3,5.2,3.7,5.2,8.3v45c0,6.7-7,10.2-7,10.3l-0.1,0l-0.1,0
    c-18.9,10.9-40.3,22.4-44,23.2c-3.6-0.8-25-12.3-44-23.2l-0.1,0l-0.1,0c-0.1,0-7-3.6-7-10.3v-45c0-4.5,4.6-7.9,5.2-8.3
    C485.9,271.3,508.2,258.8,512,257.9z"/>
</g>
<g>
  <path fill="#FBFCFC" d="M819.1,257.9c3.8,0.9,26.2,13.4,46,25.2c0.5,0.3,5.2,3.7,5.2,8.3v45c0,6.7-7,10.2-7,10.3l-0.1,0l-0.1,0
    c-18.9,10.9-40.3,22.4-44,23.2c-3.6-0.8-25-12.3-44-23.2l-0.1,0l-0.1,0c-0.1,0-7-3.6-7-10.3v-45c0-4.5,4.6-7.9,5.2-8.3
    C792.9,271.3,815.2,258.8,819.1,257.9z"/>
</g>
<g>
  <path fill="#F7F9F9" d="M716.7,257.9c3.8,0.9,26.2,13.4,46,25.2c0.5,0.3,5.2,3.7,5.2,8.3v45c0,6.7-7,10.2-7,10.3l-0.1,0l-0.1,0
    c-18.9,10.9-40.3,22.4-44,23.2c-3.6-0.8-25-12.3-44-23.2l-0.1,0l-0.1,0c-0.1,0-7-3.6-7-10.3v-45c0-4.5,4.6-7.9,5.2-8.3
    C690.5,271.3,712.9,258.8,716.7,257.9z"/>
</g>
<path fill="#FBFCFC" d="M614.4,257.9c3.8,0.9,26.2,13.4,46,25.2c0.5,0.3,5.2,3.7,5.2,8.3v45c0,6.7-7,10.2-7,10.3l-0.1,0l-0.1,0
  c-18.9,10.9-40.3,22.4-44,23.2c-3.6-0.8-25-12.3-44-23.2l-0.1,0l-0.1,0c-0.1,0-7-3.6-7-10.3v-45c0-4.5,4.6-7.9,5.2-8.3
  C588.2,271.3,610.5,258.8,614.4,257.9z"/>
<g>
  <path fill="#FBFCFC" d="M563.2,455.9c-3.8-0.9-26.2-13.4-46-25.2c-0.5-0.3-5.2-3.7-5.2-8.3v-45c0-6.7,7-10.2,7-10.3l0.1,0l0.1,0
    c18.9-10.9,40.3-22.4,44-23.2c3.6,0.8,25,12.3,44,23.2l0.1,0l0.1,0c0.1,0,7,3.6,7,10.3v45c0,4.5-4.6,7.9-5.2,8.3
    C589.4,442.5,567,455,563.2,455.9z"/>
</g>
<g>
  <path fill="#FFFFFF" d="M665.6,455.9c-3.8-0.9-26.2-13.4-46-25.2c-0.5-0.3-5.2-3.7-5.2-8.3v-45c0-6.7,7-10.2,7-10.3l0.1,0l0.1,0
    c18.9-10.9,40.3-22.4,44-23.2c3.6,0.8,25,12.3,44,23.2l0.1,0l0.1,0c0.1,0,7,3.6,7,10.3v45c0,4.5-4.6,7.9-5.2,8.3
    C691.7,442.5,669.4,455,665.6,455.9z"/>
</g>
<g>
  <path fill="#FBFCFC" d="M767.9,455.9c-3.8-0.9-26.2-13.4-46-25.2c-0.5-0.3-5.2-3.7-5.2-8.3v-45c0-6.7,7-10.2,7-10.3l0.1,0l0.1,0
    c18.9-10.9,40.3-22.4,44-23.2c3.6,0.8,25,12.3,44,23.2l0.1,0l0.1,0c0.1,0,7,3.6,7,10.3v45c0,4.5-4.6,7.9-5.2,8.3
    C794.1,442.5,771.7,455,767.9,455.9z"/>
</g>
<path fill="#FFFFFF" d="M870.2,455.9c-3.8-0.9-26.2-13.4-46-25.2c-0.5-0.3-5.2-3.7-5.2-8.3v-45c0-6.7,7-10.2,7-10.3l0.1,0l0.1,0
  c18.9-10.9,40.3-22.4,44-23.2c3.6,0.8,25,12.3,44,23.2l0.1,0l0.1,0c0.1,0,7,3.6,7,10.3v45c0,4.5-4.6,7.9-5.2,8.3
  C896.4,442.5,874.1,455,870.2,455.9z"/>
<g>
  <path fill="#FBFCFC" d="M921.4,428.7c3.8,0.9,26.2,13.4,46,25.2c0.5,0.3,5.2,3.7,5.2,8.3v45c0,6.7-7,10.2-7,10.3l-0.1,0l-0.1,0
    c-18.9,10.9-40.3,22.4-44,23.2c-3.6-0.8-25-12.3-44-23.2l-0.1,0l-0.1,0c-0.1,0-7-3.6-7-10.3v-45c0-4.5,4.6-7.9,5.2-8.3
    C895.2,442.1,917.6,429.7,921.4,428.7z"/>
</g>
<g>
  <path fill="#FBFCFC" d="M512,428.7c3.8,0.9,26.2,13.4,46,25.2c0.5,0.3,5.2,3.7,5.2,8.3v45c0,6.7-7,10.2-7,10.3l-0.1,0l-0.1,0
    c-18.9,10.9-40.3,22.4-44,23.2c-3.6-0.8-25-12.3-44-23.2l-0.1,0l-0.1,0c-0.1,0-7-3.6-7-10.3v-45c0-4.5,4.6-7.9,5.2-8.3
    C485.9,442.1,508.2,429.7,512,428.7z"/>
</g>
<g>
  <path fill="#FBFCFC" d="M819.1,428.7c3.8,0.9,26.2,13.4,46,25.2c0.5,0.3,5.2,3.7,5.2,8.3v45c0,6.7-7,10.2-7,10.3l-0.1,0l-0.1,0
    c-18.9,10.9-40.3,22.4-44,23.2c-3.6-0.8-25-12.3-44-23.2l-0.1,0l-0.1,0c-0.1,0-7-3.6-7-10.3v-45c0-4.5,4.6-7.9,5.2-8.3
    C792.9,442.1,815.2,429.7,819.1,428.7z"/>
</g>
<g>
  <path fill="#FBFCFC" d="M716.7,428.7c3.8,0.9,26.2,13.4,46,25.2c0.5,0.3,5.2,3.7,5.2,8.3v45c0,6.7-7,10.2-7,10.3l-0.1,0l-0.1,0
    c-18.9,10.9-40.3,22.4-44,23.2c-3.6-0.8-25-12.3-44-23.2l-0.1,0l-0.1,0c-0.1,0-7-3.6-7-10.3v-45c0-4.5,4.6-7.9,5.2-8.3
    C690.5,442.1,712.9,429.7,716.7,428.7z"/>
</g>
<path fill="#F7F9F9" d="M614.4,428.7c3.8,0.9,26.2,13.4,46,25.2c0.5,0.3,5.2,3.7,5.2,8.3v45c0,6.7-7,10.2-7,10.3l-0.1,0l-0.1,0
  c-18.9,10.9-40.3,22.4-44,23.2c-3.6-0.8-25-12.3-44-23.2l-0.1,0l-0.1,0c-0.1,0-7-3.6-7-10.3v-45c0-4.5,4.6-7.9,5.2-8.3
  C588.2,442.1,610.5,429.7,614.4,428.7z"/>
<g>
  <g>
    <path fill="#F7F9F9" d="M1380.3,0c3.8,0.9,26.2,13.4,46,25.2c0.5,0.3,5.2,3.7,5.2,8.3v45c0,6.7-7,10.2-7,10.3l-0.1,0l-0.1,0
      c-18.9,10.9-40.3,22.4-44,23.2c-3.6-0.8-25-12.3-44-23.2l-0.1,0l-0.1,0c-0.1,0-7-3.6-7-10.3v-45c0-4.5,4.6-7.9,5.2-8.3
      C1354.1,13.4,1376.5,0.9,1380.3,0z"/>
  </g>
  <g>
    <path fill="#F7F9F9" d="M970.9,0c3.8,0.9,26.2,13.4,46,25.2c0.5,0.3,5.2,3.7,5.2,8.3v45c0,6.7-7,10.2-7,10.3l-0.1,0l-0.1,0
      c-18.9,10.9-40.3,22.4-44,23.2c-3.6-0.8-25-12.3-44-23.2l-0.1,0l-0.1,0c-0.1,0-7-3.6-7-10.3v-45c0-4.5,4.6-7.9,5.2-8.3
      C944.7,13.4,967.1,0.9,970.9,0z"/>
  </g>
  <g>
    <path fill="#FBFCFC" d="M1277.9,0c3.8,0.9,26.2,13.4,46,25.2c0.5,0.3,5.2,3.7,5.2,8.3v45c0,6.7-7,10.2-7,10.3l-0.1,0l-0.1,0
      c-18.9,10.9-40.3,22.4-44,23.2c-3.6-0.8-25-12.3-44-23.2l-0.1,0l-0.1,0c-0.1,0-7-3.6-7-10.3v-45c0-4.5,4.6-7.9,5.2-8.3
      C1251.8,13.4,1274.1,0.9,1277.9,0z"/>
  </g>
  <g>
    <path fill="#F7F9F9" d="M1175.6,0c3.8,0.9,26.2,13.4,46,25.2c0.5,0.3,5.2,3.7,5.2,8.3v45c0,6.7-7,10.2-7,10.3l-0.1,0l-0.1,0
      c-18.9,10.9-40.3,22.4-44,23.2c-3.6-0.8-25-12.3-44-23.2l-0.1,0l-0.1,0c-0.1,0-7-3.6-7-10.3v-45c0-4.5,4.6-7.9,5.2-8.3
      C1149.4,13.4,1171.8,0.9,1175.6,0z"/>
  </g>
  <path fill="#FBFCFC" d="M1073.3,0c3.8,0.9,26.2,13.4,46,25.2c0.5,0.3,5.2,3.7,5.2,8.3v45c0,6.7-7,10.2-7,10.3l-0.1,0l-0.1,0
    c-18.9,10.9-40.3,22.4-44,23.2c-3.6-0.8-25-12.3-44-23.2l-0.1,0l-0.1,0c-0.1,0-7-3.6-7-10.3v-45c0-4.5,4.6-7.9,5.2-8.3
    C1047.1,13.4,1069.4,0.9,1073.3,0z"/>
  <g>
    <path fill="#FBFCFC" d="M1022.1,198c-3.8-0.9-26.2-13.4-46-25.2c-0.5-0.3-5.2-3.7-5.2-8.3v-45c0-6.7,7-10.2,7-10.3l0.1,0l0.1,0
      c18.9-10.9,40.3-22.4,44-23.2c3.6,0.8,25,12.3,44,23.2l0.1,0l0.1,0c0.1,0,7,3.6,7,10.3v45c0,4.5-4.6,7.9-5.2,8.3
      C1048.3,184.6,1025.9,197.1,1022.1,198z"/>
  </g>
  <g>
    <path fill="#FFFFFF" d="M1124.4,198c-3.8-0.9-26.2-13.4-46-25.2c-0.5-0.3-5.2-3.7-5.2-8.3v-45c0-6.7,7-10.2,7-10.3l0.1,0l0.1,0
      c18.9-10.9,40.3-22.4,44-23.2c3.6,0.8,25,12.3,44,23.2l0.1,0l0.1,0c0.1,0,7,3.6,7,10.3v45c0,4.5-4.6,7.9-5.2,8.3
      C1150.6,184.6,1128.3,197.1,1124.4,198z"/>
  </g>
  <g>
    <path fill="#FBFCFC" d="M1226.8,198c-3.8-0.9-26.2-13.4-46-25.2c-0.5-0.3-5.2-3.7-5.2-8.3v-45c0-6.7,7-10.2,7-10.3l0.1,0l0.1,0
      c18.9-10.9,40.3-22.4,44-23.2c3.6,0.8,25,12.3,44,23.2l0.1,0l0.1,0c0.1,0,7,3.6,7,10.3v45c0,4.5-4.6,7.9-5.2,8.3
      C1253,184.6,1230.6,197.1,1226.8,198z"/>
  </g>
  <path fill="#FFFFFF" d="M1329.1,198c-3.8-0.9-26.2-13.4-46-25.2c-0.5-0.3-5.2-3.7-5.2-8.3v-45c0-6.7,7-10.2,7-10.3l0.1,0l0.1,0
    c18.9-10.9,40.3-22.4,44-23.2c3.6,0.8,25,12.3,44,23.2l0.1,0l0.1,0c0.1,0,7,3.6,7,10.3v45c0,4.5-4.6,7.9-5.2,8.3
    C1355.3,184.6,1333,197.1,1329.1,198z"/>
  <g>
    <path fill="#FBFCFC" d="M1380.3,170.8c3.8,0.9,26.2,13.4,46,25.2c0.5,0.3,5.2,3.7,5.2,8.3v45c0,6.7-7,10.2-7,10.3l-0.1,0l-0.1,0
      c-18.9,10.9-40.3,22.4-44,23.2c-3.6-0.8-25-12.3-44-23.2l-0.1,0l-0.1,0c-0.1,0-7-3.6-7-10.3v-45c0-4.5,4.6-7.9,5.2-8.3
      C1354.1,184.2,1376.5,171.8,1380.3,170.8z"/>
  </g>
  <g>
    <path fill="#FBFCFC" d="M970.9,170.8c3.8,0.9,26.2,13.4,46,25.2c0.5,0.3,5.2,3.7,5.2,8.3v45c0,6.7-7,10.2-7,10.3l-0.1,0l-0.1,0
      c-18.9,10.9-40.3,22.4-44,23.2c-3.6-0.8-25-12.3-44-23.2l-0.1,0l-0.1,0c-0.1,0-7-3.6-7-10.3v-45c0-4.5,4.6-7.9,5.2-8.3
      C944.7,184.2,967.1,171.8,970.9,170.8z"/>
  </g>
  <g>
    <path fill="#FBFCFC" d="M1277.9,170.8c3.8,0.9,26.2,13.4,46,25.2c0.5,0.3,5.2,3.7,5.2,8.3v45c0,6.7-7,10.2-7,10.3l-0.1,0l-0.1,0
      c-18.9,10.9-40.3,22.4-44,23.2c-3.6-0.8-25-12.3-44-23.2l-0.1,0l-0.1,0c-0.1,0-7-3.6-7-10.3v-45c0-4.5,4.6-7.9,5.2-8.3
      C1251.8,184.2,1274.1,171.8,1277.9,170.8z"/>
  </g>
  <g>
    <path fill="#FBFCFC" d="M1175.6,170.8c3.8,0.9,26.2,13.4,46,25.2c0.5,0.3,5.2,3.7,5.2,8.3v45c0,6.7-7,10.2-7,10.3l-0.1,0l-0.1,0
      c-18.9,10.9-40.3,22.4-44,23.2c-3.6-0.8-25-12.3-44-23.2l-0.1,0l-0.1,0c-0.1,0-7-3.6-7-10.3v-45c0-4.5,4.6-7.9,5.2-8.3
      C1149.4,184.2,1171.8,171.8,1175.6,170.8z"/>
  </g>
  <path fill="#F7F9F9" d="M1073.3,170.8c3.8,0.9,26.2,13.4,46,25.2c0.5,0.3,5.2,3.7,5.2,8.3v45c0,6.7-7,10.2-7,10.3l-0.1,0l-0.1,0
    c-18.9,10.9-40.3,22.4-44,23.2c-3.6-0.8-25-12.3-44-23.2l-0.1,0l-0.1,0c-0.1,0-7-3.6-7-10.3v-45c0-4.5,4.6-7.9,5.2-8.3
    C1047.1,184.2,1069.4,171.8,1073.3,170.8z"/>
  <g>
    <path fill="#FFFFFF" d="M1022.1,368.8c-3.8-0.9-26.2-13.4-46-25.2c-0.5-0.3-5.2-3.7-5.2-8.3v-45c0-6.7,7-10.2,7-10.3l0.1,0l0.1,0
      c18.9-10.9,40.3-22.4,44-23.2c3.6,0.8,25,12.3,44,23.2l0.1,0l0.1,0c0.1,0,7,3.6,7,10.3v45c0,4.5-4.6,7.9-5.2,8.3
      C1048.3,355.4,1025.9,367.9,1022.1,368.8z"/>
  </g>
  <g>
    <path fill="#FFFFFF" d="M1124.4,368.8c-3.8-0.9-26.2-13.4-46-25.2c-0.5-0.3-5.2-3.7-5.2-8.3v-45c0-6.7,7-10.2,7-10.3l0.1,0l0.1,0
      c18.9-10.9,40.3-22.4,44-23.2c3.6,0.8,25,12.3,44,23.2l0.1,0l0.1,0c0.1,0,7,3.6,7,10.3v45c0,4.5-4.6,7.9-5.2,8.3
      C1150.6,355.4,1128.3,367.9,1124.4,368.8z"/>
  </g>
  <g>
    <path fill="#FFFFFF" d="M1226.8,368.8c-3.8-0.9-26.2-13.4-46-25.2c-0.5-0.3-5.2-3.7-5.2-8.3v-45c0-6.7,7-10.2,7-10.3l0.1,0l0.1,0
      c18.9-10.9,40.3-22.4,44-23.2c3.6,0.8,25,12.3,44,23.2l0.1,0l0.1,0c0.1,0,7,3.6,7,10.3v45c0,4.5-4.6,7.9-5.2,8.3
      C1253,355.4,1230.6,367.9,1226.8,368.8z"/>
  </g>
  <path fill="#FFFFFF" d="M1329.1,368.8c-3.8-0.9-26.2-13.4-46-25.2c-0.5-0.3-5.2-3.7-5.2-8.3v-45c0-6.7,7-10.2,7-10.3l0.1,0l0.1,0
    c18.9-10.9,40.3-22.4,44-23.2c3.6,0.8,25,12.3,44,23.2l0.1,0l0.1,0c0.1,0,7,3.6,7,10.3v45c0,4.5-4.6,7.9-5.2,8.3
    C1355.3,355.4,1333,367.9,1329.1,368.8z"/>
  <g>
    <path fill="#FBFCFC" d="M1380.3,341.6c3.8,0.9,26.2,13.4,46,25.2c0.5,0.3,5.2,3.7,5.2,8.3v45c0,6.7-7,10.2-7,10.3l-0.1,0l-0.1,0
      c-18.9,10.9-40.3,22.4-44,23.2c-3.6-0.8-25-12.3-44-23.2l-0.1,0l-0.1,0c-0.1,0-7-3.6-7-10.3v-45c0-4.5,4.6-7.9,5.2-8.3
      C1354.1,355.1,1376.5,342.6,1380.3,341.6z"/>
  </g>
  <g>
    <path fill="#FBFCFC" d="M970.9,341.6c3.8,0.9,26.2,13.4,46,25.2c0.5,0.3,5.2,3.7,5.2,8.3v45c0,6.7-7,10.2-7,10.3l-0.1,0l-0.1,0
      c-18.9,10.9-40.3,22.4-44,23.2c-3.6-0.8-25-12.3-44-23.2l-0.1,0l-0.1,0c-0.1,0-7-3.6-7-10.3v-45c0-4.5,4.6-7.9,5.2-8.3
      C944.7,355.1,967.1,342.6,970.9,341.6z"/>
  </g>
  <g>
    <path fill="#FBFCFC" d="M1277.9,341.6c3.8,0.9,26.2,13.4,46,25.2c0.5,0.3,5.2,3.7,5.2,8.3v45c0,6.7-7,10.2-7,10.3l-0.1,0l-0.1,0
      c-18.9,10.9-40.3,22.4-44,23.2c-3.6-0.8-25-12.3-44-23.2l-0.1,0l-0.1,0c-0.1,0-7-3.6-7-10.3v-45c0-4.5,4.6-7.9,5.2-8.3
      C1251.8,355.1,1274.1,342.6,1277.9,341.6z"/>
  </g>
  <g>
    <path fill="#FBFCFC" d="M1175.6,341.6c3.8,0.9,26.2,13.4,46,25.2c0.5,0.3,5.2,3.7,5.2,8.3v45c0,6.7-7,10.2-7,10.3l-0.1,0l-0.1,0
      c-18.9,10.9-40.3,22.4-44,23.2c-3.6-0.8-25-12.3-44-23.2l-0.1,0l-0.1,0c-0.1,0-7-3.6-7-10.3v-45c0-4.5,4.6-7.9,5.2-8.3
      C1149.4,355.1,1171.8,342.6,1175.6,341.6z"/>
  </g>
  <path fill="#F7F9F9" d="M1073.3,341.6c3.8,0.9,26.2,13.4,46,25.2c0.5,0.3,5.2,3.7,5.2,8.3v45c0,6.7-7,10.2-7,10.3l-0.1,0l-0.1,0
    c-18.9,10.9-40.3,22.4-44,23.2c-3.6-0.8-25-12.3-44-23.2l-0.1,0l-0.1,0c-0.1,0-7-3.6-7-10.3v-45c0-4.5,4.6-7.9,5.2-8.3
    C1047.1,355.1,1069.4,342.6,1073.3,341.6z"/>
</g>
<g>
  <path fill="#F7F9F9" d="M460.6,1.1c3.8,0.9,26.2,13.4,46,25.2c0.5,0.3,5.2,3.7,5.2,8.3v45c0,6.7-7,10.2-7,10.3l-0.1,0l-0.1,0
    c-18.9,10.9-40.3,22.4-44,23.2c-3.6-0.8-25-12.3-44-23.2l-0.1,0l-0.1,0c-0.1,0-7-3.6-7-10.3v-45c0-4.5,4.6-7.9,5.2-8.3
    C434.4,14.5,456.7,2,460.6,1.1z"/>
</g>
<g>
  <path fill="#F7F9F9" d="M51.2,1.1C55,2,77.4,14.5,97.2,26.3c0.5,0.3,5.2,3.7,5.2,8.3v45c0,6.7-7,10.2-7,10.3l-0.1,0l-0.1,0
    c-18.9,10.9-40.3,22.4-44,23.2c-3.6-0.8-25-12.3-44-23.2l-0.1,0l-0.1,0c-0.1,0-7-3.6-7-10.3l0-45c0-4.5,4.6-7.9,5.2-8.3
    C25,14.5,47.3,2,51.2,1.1z"/>
</g>
<g>
  <path fill="#FBFCFC" d="M358.2,1.1c3.8,0.9,26.2,13.4,46,25.2c0.5,0.3,5.2,3.7,5.2,8.3v45c0,6.7-7,10.2-7,10.3l-0.1,0l-0.1,0
    c-18.9,10.9-40.3,22.4-44,23.2c-3.6-0.8-25-12.3-44-23.2l-0.1,0l-0.1,0c-0.1,0-7-3.6-7-10.3v-45c0-4.5,4.6-7.9,5.2-8.3
    C332,14.5,354.4,2,358.2,1.1z"/>
</g>
<g>
  <path fill="#F7F9F9" d="M255.9,1.1c3.8,0.9,26.2,13.4,46,25.2c0.5,0.3,5.2,3.7,5.2,8.3v45c0,6.7-7,10.2-7,10.3l-0.1,0l-0.1,0
    c-18.9,10.9-40.3,22.4-44,23.2c-3.6-0.8-25-12.3-44-23.2l-0.1,0l-0.1,0c-0.1,0-7-3.6-7-10.3v-45c0-4.5,4.6-7.9,5.2-8.3
    C229.7,14.5,252,2,255.9,1.1z"/>
</g>
<path fill="#F7F9F9" d="M153.5,1.1c3.8,0.9,26.2,13.4,46,25.2c0.5,0.3,5.2,3.7,5.2,8.3v45c0,6.7-7,10.2-7,10.3l-0.1,0l-0.1,0
  c-18.9,10.9-40.3,22.4-44,23.2c-3.6-0.8-25-12.3-44-23.2l-0.1,0l-0.1,0c-0.1,0-7-3.6-7-10.3v-45c0-4.5,4.6-7.9,5.2-8.3
  C127.3,14.5,149.7,2,153.5,1.1z"/>
<g>
  <path fill="#FFFFFF" d="M102.3,199.1c-3.8-0.9-26.2-13.4-46-25.2c-0.5-0.3-5.2-3.7-5.2-8.3v-45c0-6.7,7-10.2,7-10.3l0.1,0l0.1,0
    c18.9-10.9,40.3-22.4,44-23.2c3.6,0.8,25,12.3,44,23.2l0.1,0l0.1,0c0.1,0,7,3.6,7,10.3v45c0,4.5-4.6,7.9-5.2,8.3
    C128.5,185.7,106.2,198.2,102.3,199.1z"/>
</g>
<g>
  <path fill="#FFFFFF" d="M204.7,199.6c-3.8-0.9-26.2-13.4-46-25.2c-0.5-0.3-5.2-3.7-5.2-8.3v-45c0-6.7,7-10.2,7-10.3l0.1,0l0.1,0
    c18.9-10.9,40.3-22.4,44-23.2c3.6,0.8,25,12.3,44,23.2l0.1,0l0.1,0c0.1,0,7,3.6,7,10.3v45c0,4.5-4.6,7.9-5.2,8.3
    C230.9,186.2,208.5,198.7,204.7,199.6z"/>
</g>
<g>
  <path fill="#FBFCFC" d="M307,199.1c-3.8-0.9-26.2-13.4-46-25.2c-0.5-0.3-5.2-3.7-5.2-8.3v-45c0-6.7,7-10.2,7-10.3l0.1,0l0.1,0
    c18.9-10.9,40.3-22.4,44-23.2c3.6,0.8,25,12.3,44,23.2l0.1,0l0.1,0c0.1,0,7,3.6,7,10.3v45c0,4.5-4.6,7.9-5.2,8.3
    C333.2,185.7,310.9,198.2,307,199.1z"/>
</g>
<path fill="#FFFFFF" d="M409.4,199.1c-3.8-0.9-26.2-13.4-46-25.2c-0.5-0.3-5.2-3.7-5.2-8.3v-45c0-6.7,7-10.2,7-10.3l0.1,0l0.1,0
  c18.9-10.9,40.3-22.4,44-23.2c3.6,0.8,25,12.3,44,23.2l0.1,0l0.1,0c0.1,0,7,3.6,7,10.3v45c0,4.5-4.6,7.9-5.2,8.3
  C435.6,185.7,413.2,198.2,409.4,199.1z"/>
<g>
  <path fill="#FBFCFC" d="M460.6,171.9c3.8,0.9,26.2,13.4,46,25.2c0.5,0.3,5.2,3.7,5.2,8.3v45c0,6.7-7,10.2-7,10.3l-0.1,0l-0.1,0
    c-18.9,10.9-40.3,22.4-44,23.2c-3.6-0.8-25-12.3-44-23.2l-0.1,0l-0.1,0c-0.1,0-7-3.6-7-10.3v-45c0-4.5,4.6-7.9,5.2-8.3
    C434.4,185.3,456.7,172.9,460.6,171.9z"/>
</g>
<g>
  <path fill="#F7F9F9" d="M51.2,171.9c3.8,0.9,26.2,13.4,46,25.2c0.5,0.3,5.2,3.7,5.2,8.3v45c0,6.7-7,10.2-7,10.3l-0.1,0l-0.1,0
    c-18.9,10.9-40.3,22.4-44,23.2c-3.6-0.8-25-12.3-44-23.2l-0.1,0l-0.1,0c-0.1,0-7-3.6-7-10.3l0-45c0-4.5,4.6-7.9,5.2-8.3
    C25,185.3,47.3,172.9,51.2,171.9z"/>
</g>
<g>
  <path fill="#FBFCFC" d="M358.2,171.9c3.8,0.9,26.2,13.4,46,25.2c0.5,0.3,5.2,3.7,5.2,8.3v45c0,6.7-7,10.2-7,10.3l-0.1,0l-0.1,0
    c-18.9,10.9-40.3,22.4-44,23.2c-3.6-0.8-25-12.3-44-23.2l-0.1,0l-0.1,0c-0.1,0-7-3.6-7-10.3v-45c0-4.5,4.6-7.9,5.2-8.3
    C332,185.3,354.4,172.9,358.2,171.9z"/>
</g>
<g>
  <path fill="#F7F9F9" d="M255.9,171.9c3.8,0.9,26.2,13.4,46,25.2c0.5,0.3,5.2,3.7,5.2,8.3v45c0,6.7-7,10.2-7,10.3l-0.1,0l-0.1,0
    c-18.9,10.9-40.3,22.4-44,23.2c-3.6-0.8-25-12.3-44-23.2l-0.1,0l-0.1,0c-0.1,0-7-3.6-7-10.3v-45c0-4.5,4.6-7.9,5.2-8.3
    C229.7,185.3,252,172.9,255.9,171.9z"/>
</g>
<path fill="#FBFCFC" d="M153.5,171.9c3.8,0.9,26.2,13.4,46,25.2c0.5,0.3,5.2,3.7,5.2,8.3v45c0,6.7-7,10.2-7,10.3l-0.1,0l-0.1,0
  c-18.9,10.9-40.3,22.4-44,23.2c-3.6-0.8-25-12.3-44-23.2l-0.1,0l-0.1,0c-0.1,0-7-3.6-7-10.3v-45c0-4.5,4.6-7.9,5.2-8.3
  C127.3,185.3,149.7,172.9,153.5,171.9z"/>
<g>
  <path fill="#FBFCFC" d="M102.3,369.9c-3.8-0.9-26.2-13.4-46-25.2c-0.5-0.3-5.2-3.7-5.2-8.3v-45c0-6.7,7-10.2,7-10.3l0.1,0l0.1,0
    c18.9-10.9,40.3-22.4,44-23.2c3.6,0.8,25,12.3,44,23.2l0.1,0l0.1,0c0.1,0,7,3.6,7,10.3v45c0,4.5-4.6,7.9-5.2,8.3
    C128.5,356.5,106.2,369,102.3,369.9z"/>
</g>
<g>
  <path fill="#FFFFFF" d="M204.7,369.9c-3.8-0.9-26.2-13.4-46-25.2c-0.5-0.3-5.2-3.7-5.2-8.3v-45c0-6.7,7-10.2,7-10.3l0.1,0l0.1,0
    c18.9-10.9,40.3-22.4,44-23.2c3.6,0.8,25,12.3,44,23.2l0.1,0l0.1,0c0.1,0,7,3.6,7,10.3v45c0,4.5-4.6,7.9-5.2,8.3
    C230.9,356.5,208.5,369,204.7,369.9z"/>
</g>
<g>
  <path fill="#FBFCFC" d="M307,369.9c-3.8-0.9-26.2-13.4-46-25.2c-0.5-0.3-5.2-3.7-5.2-8.3v-45c0-6.7,7-10.2,7-10.3l0.1,0l0.1,0
    c18.9-10.9,40.3-22.4,44-23.2c3.6,0.8,25,12.3,44,23.2l0.1,0l0.1,0c0.1,0,7,3.6,7,10.3v45c0,4.5-4.6,7.9-5.2,8.3
    C333.2,356.5,310.9,369,307,369.9z"/>
</g>
<path fill="#FFFFFF" d="M409.4,369.9c-3.8-0.9-26.2-13.4-46-25.2c-0.5-0.3-5.2-3.7-5.2-8.3v-45c0-6.7,7-10.2,7-10.3l0.1,0l0.1,0
  c18.9-10.9,40.3-22.4,44-23.2c3.6,0.8,25,12.3,44,23.2l0.1,0l0.1,0c0.1,0,7,3.6,7,10.3v45c0,4.5-4.6,7.9-5.2,8.3
  C435.6,356.5,413.2,369,409.4,369.9z"/>
<g>
  <path fill="#FBFCFC" d="M460.6,342.7c3.8,0.9,26.2,13.4,46,25.2c0.5,0.3,5.2,3.7,5.2,8.3v45c0,6.7-7,10.2-7,10.3l-0.1,0l-0.1,0
    c-18.9,10.9-40.3,22.4-44,23.2c-3.6-0.8-25-12.3-44-23.2l-0.1,0l-0.1,0c-0.1,0-7-3.6-7-10.3v-45c0-4.5,4.6-7.9,5.2-8.3
    C434.4,356.2,456.7,343.7,460.6,342.7z"/>
</g>
<g>
  <path fill="#FBFCFC" d="M51.2,342.7c3.8,0.9,26.2,13.4,46,25.2c0.5,0.3,5.2,3.7,5.2,8.3v45c0,6.7-7,10.2-7,10.3l-0.1,0l-0.1,0
    c-18.9,10.9-40.3,22.4-44,23.2c-3.6-0.8-25-12.3-44-23.2l-0.1,0l-0.1,0c-0.1,0-7-3.6-7-10.3l0-45c0-4.5,4.6-7.9,5.2-8.3
    C25,356.2,47.3,343.7,51.2,342.7z"/>
</g>
<g>
  <path fill="#FBFCFC" d="M358.2,342.7c3.8,0.9,26.2,13.4,46,25.2c0.5,0.3,5.2,3.7,5.2,8.3v45c0,6.7-7,10.2-7,10.3l-0.1,0l-0.1,0
    c-18.9,10.9-40.3,22.4-44,23.2c-3.6-0.8-25-12.3-44-23.2l-0.1,0l-0.1,0c-0.1,0-7-3.6-7-10.3v-45c0-4.5,4.6-7.9,5.2-8.3
    C332,356.2,354.4,343.7,358.2,342.7z"/>
</g>
<g>
  <path fill="#FBFCFC" d="M255.9,342.7c3.8,0.9,26.2,13.4,46,25.2c0.5,0.3,5.2,3.7,5.2,8.3v45c0,6.7-7,10.2-7,10.3l-0.1,0l-0.1,0
    c-18.9,10.9-40.3,22.4-44,23.2c-3.6-0.8-25-12.3-44-23.2l-0.1,0l-0.1,0c-0.1,0-7-3.6-7-10.3v-45c0-4.5,4.6-7.9,5.2-8.3
    C229.7,356.2,252,343.7,255.9,342.7z"/>
</g>
<path fill="#F7F9F9" d="M153.5,342.7c3.8,0.9,26.2,13.4,46,25.2c0.5,0.3,5.2,3.7,5.2,8.3v45c0,6.7-7,10.2-7,10.3l-0.1,0l-0.1,0
  c-18.9,10.9-40.3,22.4-44,23.2c-3.6-0.8-25-12.3-44-23.2l-0.1,0l-0.1,0c-0.1,0-7-3.6-7-10.3v-45c0-4.5,4.6-7.9,5.2-8.3
  C127.3,356.2,149.7,343.7,153.5,342.7z"/>
<g>
  <path fill="#FFFFFF" d="M102.3,540.7c-3.8-0.9-26.2-13.4-46-25.2c-0.5-0.3-5.2-3.7-5.2-8.3v-45c0-6.7,7-10.2,7-10.3l0.1,0l0.1,0
    c18.9-10.9,40.3-22.4,44-23.2c3.6,0.8,25,12.3,44,23.2l0.1,0l0.1,0c0.1,0,7,3.6,7,10.3v45c0,4.5-4.6,7.9-5.2,8.3
    C128.5,527.3,106.2,539.8,102.3,540.7z"/>
</g>
<g>
  <path fill="#FFFFFF" d="M204.7,540.7c-3.8-0.9-26.2-13.4-46-25.2c-0.5-0.3-5.2-3.7-5.2-8.3v-45c0-6.7,7-10.2,7-10.3l0.1,0l0.1,0
    c18.9-10.9,40.3-22.4,44-23.2c3.6,0.8,25,12.3,44,23.2l0.1,0l0.1,0c0.1,0,7,3.6,7,10.3v45c0,4.5-4.6,7.9-5.2,8.3
    C230.9,527.3,208.5,539.8,204.7,540.7z"/>
</g>
<g>
  <path fill="#FFFFFF" d="M307,540.7c-3.8-0.9-26.2-13.4-46-25.2c-0.5-0.3-5.2-3.7-5.2-8.3v-45c0-6.7,7-10.2,7-10.3l0.1,0l0.1,0
    c18.9-10.9,40.3-22.4,44-23.2c3.6,0.8,25,12.3,44,23.2l0.1,0l0.1,0c0.1,0,7,3.6,7,10.3v45c0,4.5-4.6,7.9-5.2,8.3
    C333.2,527.3,310.9,539.8,307,540.7z"/>
</g>
<path fill="#FFFFFF" d="M409.4,540.7c-3.8-0.9-26.2-13.4-46-25.2c-0.5-0.3-5.2-3.7-5.2-8.3v-45c0-6.7,7-10.2,7-10.3l0.1,0l0.1,0
  c18.9-10.9,40.3-22.4,44-23.2c3.6,0.8,25,12.3,44,23.2l0.1,0l0.1,0c0.1,0,7,3.6,7,10.3v45c0,4.5-4.6,7.9-5.2,8.3
  C435.6,527.3,413.2,539.8,409.4,540.7z"/>
<g>
  <path fill="#FFFFFF" d="M1021.9,540c-3.8-0.9-26.2-13.4-46-25.2c-0.5-0.3-5.2-3.7-5.2-8.3v-45c0-6.7,7-10.2,7-10.3l0.1,0l0.1,0
    c18.9-10.9,40.3-22.4,44-23.2c3.6,0.8,25,12.3,44,23.2l0.1,0l0.1,0c0.1,0,7,3.6,7,10.3v45c0,4.5-4.6,7.9-5.2,8.3
    C1048.1,526.6,1025.8,539,1021.9,540z"/>
</g>
<g>
  <path fill="#FFFFFF" d="M1124.3,540c-3.8-0.9-26.2-13.4-46-25.2c-0.5-0.3-5.2-3.7-5.2-8.3v-45c0-6.7,7-10.2,7-10.3l0.1,0l0.1,0
    c18.9-10.9,40.3-22.4,44-23.2c3.6,0.8,25,12.3,44,23.2l0.1,0l0.1,0c0.1,0,7,3.6,7,10.3v45c0,4.5-4.6,7.9-5.2,8.3
    C1150.5,526.6,1128.1,539,1124.3,540z"/>
</g>
<g>
  <path fill="#FFFFFF" d="M1226.6,540c-3.8-0.9-26.2-13.4-46-25.2c-0.5-0.3-5.2-3.7-5.2-8.3v-45c0-6.7,7-10.2,7-10.3l0.1,0l0.1,0
    c18.9-10.9,40.3-22.4,44-23.2c3.6,0.8,25,12.3,44,23.2l0.1,0l0.1,0c0.1,0,7,3.6,7,10.3v45c0,4.5-4.6,7.9-5.2,8.3
    C1252.8,526.6,1230.5,539,1226.6,540z"/>
</g>
<path fill="#FFFFFF" d="M1329,540c-3.8-0.9-26.2-13.4-46-25.2c-0.5-0.3-5.2-3.7-5.2-8.3v-45c0-6.7,7-10.2,7-10.3l0.1,0l0.1,0
  c18.9-10.9,40.3-22.4,44-23.2c3.6,0.8,25,12.3,44,23.2l0.1,0l0.1,0c0.1,0,7,3.6,7,10.3v45c0,4.5-4.6,7.9-5.2,8.3
  C1355.1,526.6,1332.8,539,1329,540z"/>
</svg>
